<?xml version="1.0" standalone="no"?><!DOCTYPE svg PUBLIC "-//W3C//DTD SVG 1.1//EN" "http://www.w3.org/Graphics/SVG/1.1/DTD/svg11.dtd"><svg t="1770347557143" class="icon" viewBox="0 0 1024 1024" version="1.1" xmlns="http://www.w3.org/2000/svg" p-id="13634" xmlns:xlink="http://www.w3.org/1999/xlink" width="32" height="32"><path d="M960.30000001 512c0-30.9-25.1-56-56.00000001-56.00000001L456 456c-30.9 0-56 25.1-56 56s25.1 56 56 56L904.2 568.00000001c31 0 56.1-25.1 56.10000001-56.00000001z m-896.60000001 392.20000001c0 30.9 25.1 56 56 55.99999999L904.2 960.2c30.9 0 56-25.1 56-56s-25.1-56-55.99999999-56l-784.40000002 0c-31 0-56.1 25.1-56.09999999 56.00000001zM287.9 343.9l-224.1 166.3 224.1 169.9 0-336.2zM960.3 119.79999999c0-30.9-25.1-56-56-55.99999999l-784.4 0c-30.9 0-56 25.1-56 56s25.1 56 56 56L904.20000001 175.8c31 0 56.1-25.1 56.09999999-56.00000001z" p-id="13635" fill="#bfbfbf"></path></svg>